# Created by Kenney (www.kenney.nl)

mtllib bridge-straight.mtl

g bridge-straight

v 0.11625 1.176 0.3495269 1 1 1
v 0.11625 1.12 0.3495269 1 1 1
v 0.11625 1.176 0.465 1 1 1
v 0.11625 1.12 0.465 1 1 1
v -0.11625 1.12 0.3495269 1 1 1
v -0.11625 1.176 0.3495269 1 1 1
v -0.11625 1.12 0.465 1 1 1
v -0.11625 1.176 0.465 1 1 1
v -0.34875 1.176 0.3495269 1 1 1
v -0.34875 1.176 0.465 1 1 1
v -0.465 1.176 0.3495269 1 1 1
v -0.465 1.176 0.465 1 1 1
v -0.34875 1.12 0.3495269 1 1 1
v -0.34875 1.12 0.465 1 1 1
v -0.465 9.023893E-16 -0.41385 1 1 1
v -0.465 0.79 -0.41385 1 1 1
v -0.465 9.023893E-16 0.41385 1 1 1
v -0.465 1.06 -0.3495269 1 1 1
v -0.465 1.176 -0.3495269 1 1 1
v -0.465 1.176 -0.465 1 1 1
v -0.465 0.9 -0.465 1 1 1
v -0.465 1.04 -0.2690401 1 1 1
v -0.465 1.06 -0.2690401 1 1 1
v -0.465 1.04 0.2690401 1 1 1
v -0.465 1.06 0.2690401 1 1 1
v -0.465 1.06 0.3495269 1 1 1
v -0.465 0.79 0.41385 1 1 1
v -0.465 0.9 0.465 1 1 1
v 0.34875 1.12 0.3495269 1 1 1
v 0.34875 1.176 0.3495269 1 1 1
v 0.34875 1.12 0.465 1 1 1
v 0.34875 1.176 0.465 1 1 1
v 0.465 1.176 0.3495269 1 1 1
v 0.465 1.176 0.465 1 1 1
v -0.34875 1.176 -0.465 1 1 1
v -0.34875 1.176 -0.3495269 1 1 1
v -0.34875 1.12 -0.465 1 1 1
v -0.34875 1.12 -0.3495269 1 1 1
v 0.34875 1.12 -0.465 1 1 1
v 0.34875 1.176 -0.465 1 1 1
v 0.34875 1.12 -0.3495269 1 1 1
v 0.34875 1.176 -0.3495269 1 1 1
v 0.465 1.06 0.2690401 1 1 1
v 0.465 1.04 0.2690401 1 1 1
v 0.465 1.06 0.3495269 1 1 1
v 0.465 9.023893E-16 0.41385 1 1 1
v 0.465 1.04 -0.2690401 1 1 1
v 0.465 1.06 -0.3495269 1 1 1
v 0.465 1.06 -0.2690401 1 1 1
v 0.465 9.023893E-16 -0.41385 1 1 1
v 0.465 1.176 -0.3495269 1 1 1
v 0.465 0.79 -0.41385 1 1 1
v 0.465 0.9 -0.465 1 1 1
v 0.465 1.176 -0.465 1 1 1
v 0.465 0.79 0.41385 1 1 1
v 0.465 0.9 0.465 1 1 1
v 0.11625 1.12 -0.465 1 1 1
v 0.11625 1.12 -0.3495269 1 1 1
v 0.11625 1.176 -0.465 1 1 1
v 0.11625 1.176 -0.3495269 1 1 1
v -0.11625 1.12 -0.465 1 1 1
v -0.11625 1.176 -0.465 1 1 1
v -0.11625 1.12 -0.3495269 1 1 1
v -0.11625 1.176 -0.3495269 1 1 1
v -0.34875 0 -0.41385 1 1 1
v -0.34875 0.3470415 -0.41385 1 1 1
v -0.3368666 0.4373047 -0.41385 1 1 1
v -0.3020264 0.5214165 -0.41385 1 1 1
v -0.2466035 0.593645 -0.41385 1 1 1
v -0.174375 0.6490679 -0.41385 1 1 1
v -0.1622672 0.6540831 -0.41385 1 1 1
v -0.09026314 0.6839082 -0.41385 1 1 1
v 3.248601E-15 0.6957915 -0.41385 1 1 1
v 0.09026314 0.6839082 -0.41385 1 1 1
v 0.1622672 0.6540831 -0.41385 1 1 1
v 0.174375 0.6490679 -0.41385 1 1 1
v 0.2466035 0.593645 -0.41385 1 1 1
v 0.3020264 0.5214165 -0.41385 1 1 1
v 0.3368666 0.4373047 -0.41385 1 1 1
v 0.34875 0.3470415 -0.41385 1 1 1
v 0.34875 0 -0.41385 1 1 1
v -0.34875 0 0.41385 1 1 1
v 0.34875 0 0.41385 1 1 1
v 0.34875 0.3470415 0.41385 1 1 1
v 0.3368666 0.4373047 0.41385 1 1 1
v 0.3020264 0.5214165 0.41385 1 1 1
v 0.2466035 0.593645 0.41385 1 1 1
v 0.174375 0.6490679 0.41385 1 1 1
v 0.1622672 0.6540831 0.41385 1 1 1
v 0.09026314 0.6839082 0.41385 1 1 1
v 3.248601E-15 0.6957915 0.41385 1 1 1
v -0.09026314 0.6839082 0.41385 1 1 1
v -0.1622672 0.6540831 0.41385 1 1 1
v -0.174375 0.6490679 0.41385 1 1 1
v -0.2466035 0.593645 0.41385 1 1 1
v -0.3020264 0.5214165 0.41385 1 1 1
v -0.3368666 0.4373047 0.41385 1 1 1
v -0.34875 0.3470415 0.41385 1 1 1

vn 1 0 0
vn -1 0 0
vn 0 1 0
vn 0 0 1
vn 0 0 -1
vn 0 -1 0
vn -0.5 -0.8660254 0
vn -0.3826834 -0.9238795 0
vn -0.258819 -0.9659258 0
vn 0.258819 -0.9659258 0
vn 0.3826834 -0.9238795 0
vn 0.5 -0.8660254 0
vn 0.7071068 -0.7071068 0
vn 0.8660254 -0.5 0
vn 0.9659258 -0.258819 0
vn 0.9914449 -0.1305262 0
vn -0.9914449 -0.1305262 0
vn -0.9659258 -0.258819 0
vn -0.8660254 -0.5 0
vn -0.7071068 -0.7071068 0
vn 0 -0.4216441 -0.9067615
vn 0 -0.4216441 0.9067615

vt 0.84375 0.225
vt 0.84375 0.2154762
vt 0.84375 0.025
vt 0.84375 0.1593537
vt 0.84375 0.2052721
vt 0.84375 0.1780612
vt 0.84375 0.2018707
vt 0.84375 0.08402067
vt 0.84375 0.09937155
vt 0.84375 0.1136763
vt 0.84375 0.12596
vt 0.84375 0.1353857
vt 0.84375 0.1362386
vt 0.84375 0.1413109
vt 0.84375 0.1433319
vt 0.96875 0.2018707
vt 0.96875 0.1593537
vt 0.96875 0.1780612

usemtl colormap

f 3/1/1 2/2/1 1/1/1
f 2/2/1 3/1/1 4/2/1
f 7/2/2 6/1/2 5/2/2
f 6/1/2 7/2/2 8/1/2
f 11/1/3 10/1/3 9/1/3
f 10/1/3 11/1/3 12/1/3
f 13/2/3 7/2/3 5/2/3
f 7/2/3 13/2/3 14/2/3
f 10/1/1 13/2/1 9/1/1
f 13/2/1 10/1/1 14/2/1
f 6/1/3 3/1/3 1/1/3
f 3/1/3 6/1/3 8/1/3
f 17/3/2 16/4/2 15/3/2
f 16/4/2 17/3/2 18/5/2
f 19/1/2 16/4/2 18/5/2
f 20/1/2 16/4/2 19/1/2
f 16/4/2 20/1/2 21/6/2
f 18/5/2 17/3/2 22/7/2
f 23/5/2 18/5/2 22/7/2
f 22/7/2 17/3/2 24/7/2
f 24/7/2 17/3/2 25/5/2
f 25/5/2 17/3/2 26/5/2
f 26/5/2 17/3/2 11/1/2
f 11/1/2 17/3/2 27/4/2
f 11/1/2 27/4/2 12/1/2
f 12/1/2 27/4/2 28/6/2
f 31/2/2 30/1/2 29/2/2
f 30/1/2 31/2/2 32/1/2
f 30/1/3 34/1/3 33/1/3
f 34/1/3 30/1/3 32/1/3
f 20/1/3 36/1/3 35/1/3
f 36/1/3 20/1/3 19/1/3
f 36/1/1 37/2/1 35/1/1
f 37/2/1 36/1/1 38/2/1
f 41/2/2 40/1/2 39/2/2
f 40/1/2 41/2/2 42/1/2
f 45/5/1 44/7/1 43/5/1
f 46/3/1 44/7/1 45/5/1
f 46/3/1 47/7/1 44/7/1
f 46/3/1 48/5/1 47/7/1
f 47/7/1 48/5/1 49/5/1
f 50/3/1 48/5/1 46/3/1
f 50/3/1 51/1/1 48/5/1
f 52/4/1 51/1/1 50/3/1
f 53/6/1 51/1/1 52/4/1
f 51/1/1 53/6/1 54/1/1
f 46/3/1 45/5/1 55/4/1
f 45/5/1 34/1/1 55/4/1
f 55/4/1 34/1/1 56/6/1
f 34/1/1 45/5/1 33/1/1
f 57/2/3 41/2/3 39/2/3
f 41/2/3 57/2/3 58/2/3
f 40/1/3 51/1/3 54/1/3
f 51/1/3 40/1/3 42/1/3
f 60/1/1 57/2/1 59/1/1
f 57/2/1 60/1/1 58/2/1
f 63/2/2 62/1/2 61/2/2
f 62/1/2 63/2/2 64/1/2
f 62/1/3 60/1/3 59/1/3
f 60/1/3 62/1/3 64/1/3
f 25/5/3 45/5/3 43/5/3
f 45/5/3 25/5/3 26/5/3
f 18/5/3 49/5/3 48/5/3
f 49/5/3 18/5/3 23/5/3
f 63/2/4 60/1/4 64/1/4
f 60/1/4 63/2/4 58/2/4
f 38/2/4 58/2/4 63/2/4
f 38/2/4 41/2/4 58/2/4
f 38/2/4 18/5/4 41/2/4
f 18/5/4 38/2/4 19/1/4
f 19/1/4 38/2/4 36/1/4
f 48/5/4 41/2/4 18/5/4
f 41/2/4 48/5/4 51/1/4
f 41/2/4 51/1/4 42/1/4
f 37/2/5 20/1/5 35/1/5
f 37/2/5 21/6/5 20/1/5
f 21/6/5 37/2/5 53/6/5
f 39/2/5 53/6/5 37/2/5
f 53/6/5 39/2/5 54/1/5
f 54/1/5 39/2/5 40/1/5
f 39/2/5 37/2/5 61/2/5
f 39/2/5 61/2/5 57/2/5
f 62/1/5 57/2/5 61/2/5
f 57/2/5 62/1/5 59/1/5
f 13/2/5 11/1/5 9/1/5
f 13/2/5 26/5/5 11/1/5
f 26/5/5 13/2/5 45/5/5
f 29/2/5 45/5/5 13/2/5
f 45/5/5 29/2/5 33/1/5
f 33/1/5 29/2/5 30/1/5
f 29/2/5 13/2/5 5/2/5
f 29/2/5 5/2/5 2/2/5
f 6/1/5 2/2/5 5/2/5
f 2/2/5 6/1/5 1/1/5
f 31/2/4 34/1/4 32/1/4
f 31/2/4 56/6/4 34/1/4
f 56/6/4 31/2/4 28/6/4
f 14/2/4 28/6/4 31/2/4
f 28/6/4 14/2/4 12/1/4
f 12/1/4 14/2/4 10/1/4
f 14/2/4 31/2/4 4/2/4
f 14/2/4 4/2/4 7/2/4
f 3/1/4 7/2/4 4/2/4
f 7/2/4 3/1/4 8/1/4
f 37/2/3 63/2/3 61/2/3
f 63/2/3 37/2/3 38/2/3
f 2/2/3 31/2/3 29/2/3
f 31/2/3 2/2/3 4/2/3
f 25/5/5 44/7/5 24/7/5
f 44/7/5 25/5/5 43/5/5
f 49/5/4 22/7/4 47/7/4
f 22/7/4 49/5/4 23/5/4
f 15/3/5 66/8/5 65/3/5
f 66/8/5 15/3/5 16/4/5
f 66/8/5 16/4/5 67/9/5
f 67/9/5 16/4/5 68/10/5
f 68/10/5 16/4/5 69/11/5
f 69/11/5 16/4/5 70/12/5
f 70/12/5 16/4/5 71/13/5
f 71/13/5 16/4/5 72/14/5
f 72/14/5 16/4/5 73/15/5
f 52/4/5 73/15/5 16/4/5
f 52/4/5 74/14/5 73/15/5
f 52/4/5 75/13/5 74/14/5
f 52/4/5 76/12/5 75/13/5
f 52/4/5 77/11/5 76/12/5
f 52/4/5 78/10/5 77/11/5
f 52/4/5 79/9/5 78/10/5
f 52/4/5 80/8/5 79/9/5
f 50/3/5 80/8/5 52/4/5
f 80/8/5 50/3/5 81/3/5
f 17/3/6 65/3/6 82/3/6
f 65/3/6 17/3/6 15/3/6
f 46/3/4 84/8/4 83/3/4
f 84/8/4 46/3/4 55/4/4
f 84/8/4 55/4/4 85/9/4
f 85/9/4 55/4/4 86/10/4
f 86/10/4 55/4/4 87/11/4
f 87/11/4 55/4/4 88/12/4
f 88/12/4 55/4/4 89/13/4
f 89/13/4 55/4/4 90/14/4
f 90/14/4 55/4/4 91/15/4
f 27/4/4 91/15/4 55/4/4
f 27/4/4 92/14/4 91/15/4
f 27/4/4 93/13/4 92/14/4
f 27/4/4 94/12/4 93/13/4
f 27/4/4 95/11/4 94/12/4
f 27/4/4 96/10/4 95/11/4
f 27/4/4 97/9/4 96/10/4
f 27/4/4 98/8/4 97/9/4
f 17/3/4 98/8/4 27/4/4
f 98/8/4 17/3/4 82/3/4
f 89/13/8 76/12/7 88/12/7
f 76/12/7 89/13/8 75/13/8
f 90/14/9 75/13/8 89/13/8
f 75/13/8 90/14/9 74/14/9
f 91/15/6 74/14/9 90/14/9
f 74/14/9 91/15/6 73/15/6
f 92/14/10 73/15/6 91/15/6
f 73/15/6 92/14/10 72/14/10
f 93/13/11 72/14/10 92/14/10
f 72/14/10 93/13/11 71/13/11
f 94/12/12 71/13/11 93/13/11
f 71/13/11 94/12/12 70/12/12
f 95/11/13 70/12/12 94/12/12
f 70/12/12 95/11/13 69/11/13
f 95/11/13 68/10/14 69/11/13
f 68/10/14 95/11/13 96/10/14
f 96/10/14 67/9/15 68/10/14
f 67/9/15 96/10/14 97/9/15
f 97/9/15 66/8/16 67/9/15
f 66/8/16 97/9/15 98/8/16
f 98/8/1 65/3/1 66/8/1
f 65/3/1 98/8/1 82/3/1
f 83/3/2 80/8/2 81/3/2
f 80/8/2 83/3/2 84/8/2
f 84/8/17 79/9/18 80/8/17
f 79/9/18 84/8/17 85/9/18
f 85/9/18 78/10/19 79/9/18
f 78/10/19 85/9/18 86/10/19
f 86/10/19 77/11/20 78/10/19
f 77/11/20 86/10/19 87/11/20
f 88/12/7 77/11/20 87/11/20
f 77/11/20 88/12/7 76/12/7
f 83/3/6 50/3/6 46/3/6
f 50/3/6 83/3/6 81/3/6
f 22/16/3 44/16/3 47/16/3
f 44/16/3 22/16/3 24/16/3
f 21/18/21 52/17/21 16/17/21
f 52/17/21 21/18/21 53/18/21
f 56/18/22 27/17/22 55/17/22
f 27/17/22 56/18/22 28/18/22

g bridge-straight




usemtl colormap

f 3/1/1 2/2/1 1/1/1
f 2/2/1 3/1/1 4/2/1
f 7/2/2 6/1/2 5/2/2
f 6/1/2 7/2/2 8/1/2
f 11/1/3 10/1/3 9/1/3
f 10/1/3 11/1/3 12/1/3
f 13/2/3 7/2/3 5/2/3
f 7/2/3 13/2/3 14/2/3
f 10/1/1 13/2/1 9/1/1
f 13/2/1 10/1/1 14/2/1
f 6/1/3 3/1/3 1/1/3
f 3/1/3 6/1/3 8/1/3
f 17/3/2 16/4/2 15/3/2
f 16/4/2 17/3/2 18/5/2
f 19/1/2 16/4/2 18/5/2
f 20/1/2 16/4/2 19/1/2
f 16/4/2 20/1/2 21/6/2
f 18/5/2 17/3/2 22/7/2
f 23/5/2 18/5/2 22/7/2
f 22/7/2 17/3/2 24/7/2
f 24/7/2 17/3/2 25/5/2
f 25/5/2 17/3/2 26/5/2
f 26/5/2 17/3/2 11/1/2
f 11/1/2 17/3/2 27/4/2
f 11/1/2 27/4/2 12/1/2
f 12/1/2 27/4/2 28/6/2
f 31/2/2 30/1/2 29/2/2
f 30/1/2 31/2/2 32/1/2
f 30/1/3 34/1/3 33/1/3
f 34/1/3 30/1/3 32/1/3
f 20/1/3 36/1/3 35/1/3
f 36/1/3 20/1/3 19/1/3
f 36/1/1 37/2/1 35/1/1
f 37/2/1 36/1/1 38/2/1
f 41/2/2 40/1/2 39/2/2
f 40/1/2 41/2/2 42/1/2
f 45/5/1 44/7/1 43/5/1
f 46/3/1 44/7/1 45/5/1
f 46/3/1 47/7/1 44/7/1
f 46/3/1 48/5/1 47/7/1
f 47/7/1 48/5/1 49/5/1
f 50/3/1 48/5/1 46/3/1
f 50/3/1 51/1/1 48/5/1
f 52/4/1 51/1/1 50/3/1
f 53/6/1 51/1/1 52/4/1
f 51/1/1 53/6/1 54/1/1
f 46/3/1 45/5/1 55/4/1
f 45/5/1 34/1/1 55/4/1
f 55/4/1 34/1/1 56/6/1
f 34/1/1 45/5/1 33/1/1
f 57/2/3 41/2/3 39/2/3
f 41/2/3 57/2/3 58/2/3
f 40/1/3 51/1/3 54/1/3
f 51/1/3 40/1/3 42/1/3
f 60/1/1 57/2/1 59/1/1
f 57/2/1 60/1/1 58/2/1
f 63/2/2 62/1/2 61/2/2
f 62/1/2 63/2/2 64/1/2
f 62/1/3 60/1/3 59/1/3
f 60/1/3 62/1/3 64/1/3
f 25/5/3 45/5/3 43/5/3
f 45/5/3 25/5/3 26/5/3
f 18/5/3 49/5/3 48/5/3
f 49/5/3 18/5/3 23/5/3
f 63/2/4 60/1/4 64/1/4
f 60/1/4 63/2/4 58/2/4
f 38/2/4 58/2/4 63/2/4
f 38/2/4 41/2/4 58/2/4
f 38/2/4 18/5/4 41/2/4
f 18/5/4 38/2/4 19/1/4
f 19/1/4 38/2/4 36/1/4
f 48/5/4 41/2/4 18/5/4
f 41/2/4 48/5/4 51/1/4
f 41/2/4 51/1/4 42/1/4
f 37/2/5 20/1/5 35/1/5
f 37/2/5 21/6/5 20/1/5
f 21/6/5 37/2/5 53/6/5
f 39/2/5 53/6/5 37/2/5
f 53/6/5 39/2/5 54/1/5
f 54/1/5 39/2/5 40/1/5
f 39/2/5 37/2/5 61/2/5
f 39/2/5 61/2/5 57/2/5
f 62/1/5 57/2/5 61/2/5
f 57/2/5 62/1/5 59/1/5
f 13/2/5 11/1/5 9/1/5
f 13/2/5 26/5/5 11/1/5
f 26/5/5 13/2/5 45/5/5
f 29/2/5 45/5/5 13/2/5
f 45/5/5 29/2/5 33/1/5
f 33/1/5 29/2/5 30/1/5
f 29/2/5 13/2/5 5/2/5
f 29/2/5 5/2/5 2/2/5
f 6/1/5 2/2/5 5/2/5
f 2/2/5 6/1/5 1/1/5
f 31/2/4 34/1/4 32/1/4
f 31/2/4 56/6/4 34/1/4
f 56/6/4 31/2/4 28/6/4
f 14/2/4 28/6/4 31/2/4
f 28/6/4 14/2/4 12/1/4
f 12/1/4 14/2/4 10/1/4
f 14/2/4 31/2/4 4/2/4
f 14/2/4 4/2/4 7/2/4
f 3/1/4 7/2/4 4/2/4
f 7/2/4 3/1/4 8/1/4
f 37/2/3 63/2/3 61/2/3
f 63/2/3 37/2/3 38/2/3
f 2/2/3 31/2/3 29/2/3
f 31/2/3 2/2/3 4/2/3
f 25/5/5 44/7/5 24/7/5
f 44/7/5 25/5/5 43/5/5
f 49/5/4 22/7/4 47/7/4
f 22/7/4 49/5/4 23/5/4
f 15/3/5 66/8/5 65/3/5
f 66/8/5 15/3/5 16/4/5
f 66/8/5 16/4/5 67/9/5
f 67/9/5 16/4/5 68/10/5
f 68/10/5 16/4/5 69/11/5
f 69/11/5 16/4/5 70/12/5
f 70/12/5 16/4/5 71/13/5
f 71/13/5 16/4/5 72/14/5
f 72/14/5 16/4/5 73/15/5
f 52/4/5 73/15/5 16/4/5
f 52/4/5 74/14/5 73/15/5
f 52/4/5 75/13/5 74/14/5
f 52/4/5 76/12/5 75/13/5
f 52/4/5 77/11/5 76/12/5
f 52/4/5 78/10/5 77/11/5
f 52/4/5 79/9/5 78/10/5
f 52/4/5 80/8/5 79/9/5
f 50/3/5 80/8/5 52/4/5
f 80/8/5 50/3/5 81/3/5
f 17/3/6 65/3/6 82/3/6
f 65/3/6 17/3/6 15/3/6
f 46/3/4 84/8/4 83/3/4
f 84/8/4 46/3/4 55/4/4
f 84/8/4 55/4/4 85/9/4
f 85/9/4 55/4/4 86/10/4
f 86/10/4 55/4/4 87/11/4
f 87/11/4 55/4/4 88/12/4
f 88/12/4 55/4/4 89/13/4
f 89/13/4 55/4/4 90/14/4
f 90/14/4 55/4/4 91/15/4
f 27/4/4 91/15/4 55/4/4
f 27/4/4 92/14/4 91/15/4
f 27/4/4 93/13/4 92/14/4
f 27/4/4 94/12/4 93/13/4
f 27/4/4 95/11/4 94/12/4
f 27/4/4 96/10/4 95/11/4
f 27/4/4 97/9/4 96/10/4
f 27/4/4 98/8/4 97/9/4
f 17/3/4 98/8/4 27/4/4
f 98/8/4 17/3/4 82/3/4
f 89/13/8 76/12/7 88/12/7
f 76/12/7 89/13/8 75/13/8
f 90/14/9 75/13/8 89/13/8
f 75/13/8 90/14/9 74/14/9
f 91/15/6 74/14/9 90/14/9
f 74/14/9 91/15/6 73/15/6
f 92/14/10 73/15/6 91/15/6
f 73/15/6 92/14/10 72/14/10
f 93/13/11 72/14/10 92/14/10
f 72/14/10 93/13/11 71/13/11
f 94/12/12 71/13/11 93/13/11
f 71/13/11 94/12/12 70/12/12
f 95/11/13 70/12/12 94/12/12
f 70/12/12 95/11/13 69/11/13
f 95/11/13 68/10/14 69/11/13
f 68/10/14 95/11/13 96/10/14
f 96/10/14 67/9/15 68/10/14
f 67/9/15 96/10/14 97/9/15
f 97/9/15 66/8/16 67/9/15
f 66/8/16 97/9/15 98/8/16
f 98/8/1 65/3/1 66/8/1
f 65/3/1 98/8/1 82/3/1
f 83/3/2 80/8/2 81/3/2
f 80/8/2 83/3/2 84/8/2
f 84/8/17 79/9/18 80/8/17
f 79/9/18 84/8/17 85/9/18
f 85/9/18 78/10/19 79/9/18
f 78/10/19 85/9/18 86/10/19
f 86/10/19 77/11/20 78/10/19
f 77/11/20 86/10/19 87/11/20
f 88/12/7 77/11/20 87/11/20
f 77/11/20 88/12/7 76/12/7
f 83/3/6 50/3/6 46/3/6
f 50/3/6 83/3/6 81/3/6
f 22/16/3 44/16/3 47/16/3
f 44/16/3 22/16/3 24/16/3
f 21/18/21 52/17/21 16/17/21
f 52/17/21 21/18/21 53/18/21
f 56/18/22 27/17/22 55/17/22
f 27/17/22 56/18/22 28/18/22

