# Created by Kenney (www.kenney.nl)

mtllib bridge-straight-pillar.mtl

g bridge-straight-pillar

v 0.11625 1.176 0.3495269 1 1 1
v 0.11625 1.12 0.3495269 1 1 1
v 0.11625 1.176 0.465 1 1 1
v 0.11625 1.12 0.465 1 1 1
v -0.11625 1.12 0.3495269 1 1 1
v -0.11625 1.176 0.3495269 1 1 1
v -0.11625 1.12 0.465 1 1 1
v -0.11625 1.176 0.465 1 1 1
v -0.34875 1.176 0.3495269 1 1 1
v -0.34875 1.176 0.465 1 1 1
v -0.465 1.176 0.3495269 1 1 1
v -0.465 1.176 0.465 1 1 1
v -0.34875 1.12 0.3495269 1 1 1
v -0.34875 1.12 0.465 1 1 1
v -0.465 0.6957915 -0.41385 1 1 1
v -0.465 0.79 -0.41385 1 1 1
v -0.465 0.6957915 0.41385 1 1 1
v -0.465 1.06 -0.3495269 1 1 1
v -0.465 1.176 -0.3495269 1 1 1
v -0.465 1.176 -0.465 1 1 1
v -0.465 0.9 -0.465 1 1 1
v -0.465 1.04 -0.2690401 1 1 1
v -0.465 1.06 -0.2690401 1 1 1
v -0.465 1.04 0.2690401 1 1 1
v -0.465 1.06 0.2690401 1 1 1
v -0.465 1.06 0.3495269 1 1 1
v -0.465 0.79 0.41385 1 1 1
v -0.465 0.9 0.465 1 1 1
v 0.34875 1.12 0.3495269 1 1 1
v 0.34875 1.176 0.3495269 1 1 1
v 0.34875 1.12 0.465 1 1 1
v 0.34875 1.176 0.465 1 1 1
v 0.465 1.176 0.3495269 1 1 1
v 0.465 1.176 0.465 1 1 1
v -0.34875 1.176 -0.465 1 1 1
v -0.34875 1.176 -0.3495269 1 1 1
v -0.34875 1.12 -0.465 1 1 1
v -0.34875 1.12 -0.3495269 1 1 1
v 0.34875 1.12 -0.465 1 1 1
v 0.34875 1.176 -0.465 1 1 1
v 0.34875 1.12 -0.3495269 1 1 1
v 0.34875 1.176 -0.3495269 1 1 1
v 0.465 1.06 0.2690401 1 1 1
v 0.465 1.04 0.2690401 1 1 1
v 0.465 1.06 0.3495269 1 1 1
v 0.465 0.6957915 0.41385 1 1 1
v 0.465 1.04 -0.2690401 1 1 1
v 0.465 1.06 -0.3495269 1 1 1
v 0.465 1.06 -0.2690401 1 1 1
v 0.465 0.6957915 -0.41385 1 1 1
v 0.465 1.176 -0.3495269 1 1 1
v 0.465 0.79 -0.41385 1 1 1
v 0.465 0.9 -0.465 1 1 1
v 0.465 1.176 -0.465 1 1 1
v 0.465 0.79 0.41385 1 1 1
v 0.465 0.9 0.465 1 1 1
v 0.11625 1.12 -0.465 1 1 1
v 0.11625 1.12 -0.3495269 1 1 1
v 0.11625 1.176 -0.465 1 1 1
v 0.11625 1.176 -0.3495269 1 1 1
v -0.11625 1.12 -0.465 1 1 1
v -0.11625 1.176 -0.465 1 1 1
v -0.11625 1.12 -0.3495269 1 1 1
v -0.11625 1.176 -0.3495269 1 1 1
v 0.385 0.6957915 0.41385 1 1 1
v -0.385 0.6957915 0.41385 1 1 1
v 0.385 0.6957915 -0.41385 1 1 1
v -0.385 0.6957915 -0.41385 1 1 1
v 0.1692 0.4857916 0.36385 1 1 1
v 0.1692 0.4857916 -0.36385 1 1 1
v -0.1692 0.4857916 0.36385 1 1 1
v -0.1692 0.4857916 -0.36385 1 1 1
v 0.192888 0 0.41385 1 1 1
v 0.192888 0 -0.41385 1 1 1
v -0.192888 0 0.41385 1 1 1
v -0.192888 0 -0.41385 1 1 1
v 0.1692 0.1357916 -0.36385 1 1 1
v 0.1692 0.1357916 0.36385 1 1 1
v -0.1692 0.1357916 -0.36385 1 1 1
v -0.1692 0.1357916 0.36385 1 1 1

vn 1 0 0
vn -1 0 0
vn 0 1 0
vn 0 0 1
vn 0 0 -1
vn 0 -1 0
vn 0.6974103 -0.7166721 0
vn -0.6974103 -0.7166721 0
vn 0.9851233 0.1718487 0
vn 0 0.3455321 -0.9384069
vn -0.9851233 0.1718487 0
vn 0 0.3455321 0.9384069
vn 0 -0.2316205 0.9728062
vn 0 -0.2316205 -0.9728062
vn 0 -0.4216441 -0.9067615
vn 0 -0.4216441 0.9067615

vt 0.84375 0.225
vt 0.84375 0.2154762
vt 0.84375 0.1433319
vt 0.84375 0.1593537
vt 0.84375 0.2052721
vt 0.84375 0.1780612
vt 0.84375 0.2018707
vt 0.84375 0.1076176
vt 0.84375 0.025
vt 0.84375 0.0480938
vt 0.96875 0.2018707
vt 0.96875 0.1593537
vt 0.96875 0.1780612
vt 0.96875 0.0480938
vt 0.96875 0.1076176

usemtl colormap

f 3/1/1 2/2/1 1/1/1
f 2/2/1 3/1/1 4/2/1
f 7/2/2 6/1/2 5/2/2
f 6/1/2 7/2/2 8/1/2
f 11/1/3 10/1/3 9/1/3
f 10/1/3 11/1/3 12/1/3
f 13/2/3 7/2/3 5/2/3
f 7/2/3 13/2/3 14/2/3
f 10/1/1 13/2/1 9/1/1
f 13/2/1 10/1/1 14/2/1
f 6/1/3 3/1/3 1/1/3
f 3/1/3 6/1/3 8/1/3
f 17/3/2 16/4/2 15/3/2
f 16/4/2 17/3/2 18/5/2
f 19/1/2 16/4/2 18/5/2
f 20/1/2 16/4/2 19/1/2
f 16/4/2 20/1/2 21/6/2
f 18/5/2 17/3/2 22/7/2
f 23/5/2 18/5/2 22/7/2
f 22/7/2 17/3/2 24/7/2
f 24/7/2 17/3/2 25/5/2
f 25/5/2 17/3/2 26/5/2
f 26/5/2 17/3/2 11/1/2
f 11/1/2 17/3/2 27/4/2
f 11/1/2 27/4/2 12/1/2
f 12/1/2 27/4/2 28/6/2
f 31/2/2 30/1/2 29/2/2
f 30/1/2 31/2/2 32/1/2
f 30/1/3 34/1/3 33/1/3
f 34/1/3 30/1/3 32/1/3
f 20/1/3 36/1/3 35/1/3
f 36/1/3 20/1/3 19/1/3
f 36/1/1 37/2/1 35/1/1
f 37/2/1 36/1/1 38/2/1
f 41/2/2 40/1/2 39/2/2
f 40/1/2 41/2/2 42/1/2
f 45/5/1 44/7/1 43/5/1
f 46/3/1 44/7/1 45/5/1
f 46/3/1 47/7/1 44/7/1
f 46/3/1 48/5/1 47/7/1
f 47/7/1 48/5/1 49/5/1
f 50/3/1 48/5/1 46/3/1
f 50/3/1 51/1/1 48/5/1
f 52/4/1 51/1/1 50/3/1
f 53/6/1 51/1/1 52/4/1
f 51/1/1 53/6/1 54/1/1
f 45/5/1 55/4/1 46/3/1
f 45/5/1 34/1/1 55/4/1
f 55/4/1 34/1/1 56/6/1
f 34/1/1 45/5/1 33/1/1
f 57/2/3 41/2/3 39/2/3
f 41/2/3 57/2/3 58/2/3
f 40/1/3 51/1/3 54/1/3
f 51/1/3 40/1/3 42/1/3
f 60/1/1 57/2/1 59/1/1
f 57/2/1 60/1/1 58/2/1
f 63/2/2 62/1/2 61/2/2
f 62/1/2 63/2/2 64/1/2
f 62/1/3 60/1/3 59/1/3
f 60/1/3 62/1/3 64/1/3
f 25/5/3 45/5/3 43/5/3
f 45/5/3 25/5/3 26/5/3
f 18/5/3 49/5/3 48/5/3
f 49/5/3 18/5/3 23/5/3
f 63/2/4 60/1/4 64/1/4
f 60/1/4 63/2/4 58/2/4
f 38/2/4 58/2/4 63/2/4
f 38/2/4 41/2/4 58/2/4
f 38/2/4 18/5/4 41/2/4
f 18/5/4 38/2/4 19/1/4
f 19/1/4 38/2/4 36/1/4
f 48/5/4 41/2/4 18/5/4
f 41/2/4 48/5/4 51/1/4
f 41/2/4 51/1/4 42/1/4
f 37/2/5 20/1/5 35/1/5
f 37/2/5 21/6/5 20/1/5
f 21/6/5 37/2/5 53/6/5
f 39/2/5 53/6/5 37/2/5
f 53/6/5 39/2/5 54/1/5
f 54/1/5 39/2/5 40/1/5
f 39/2/5 37/2/5 61/2/5
f 39/2/5 61/2/5 57/2/5
f 62/1/5 57/2/5 61/2/5
f 57/2/5 62/1/5 59/1/5
f 13/2/5 11/1/5 9/1/5
f 13/2/5 26/5/5 11/1/5
f 26/5/5 13/2/5 45/5/5
f 29/2/5 45/5/5 13/2/5
f 45/5/5 29/2/5 33/1/5
f 33/1/5 29/2/5 30/1/5
f 29/2/5 13/2/5 5/2/5
f 29/2/5 5/2/5 2/2/5
f 6/1/5 2/2/5 5/2/5
f 2/2/5 6/1/5 1/1/5
f 31/2/4 34/1/4 32/1/4
f 31/2/4 56/6/4 34/1/4
f 56/6/4 31/2/4 28/6/4
f 14/2/4 28/6/4 31/2/4
f 28/6/4 14/2/4 12/1/4
f 12/1/4 14/2/4 10/1/4
f 14/2/4 31/2/4 4/2/4
f 14/2/4 4/2/4 7/2/4
f 3/1/4 7/2/4 4/2/4
f 7/2/4 3/1/4 8/1/4
f 37/2/3 63/2/3 61/2/3
f 63/2/3 37/2/3 38/2/3
f 2/2/3 31/2/3 29/2/3
f 31/2/3 2/2/3 4/2/3
f 25/5/5 44/7/5 24/7/5
f 44/7/5 25/5/5 43/5/5
f 49/5/4 22/7/4 47/7/4
f 22/7/4 49/5/4 23/5/4
f 55/4/4 65/3/4 46/3/4
f 65/3/4 55/4/4 66/3/4
f 66/3/4 55/4/4 17/3/4
f 17/3/4 55/4/4 27/4/4
f 65/3/6 50/3/6 46/3/6
f 50/3/6 65/3/6 67/3/6
f 17/3/6 68/3/6 66/3/6
f 68/3/6 17/3/6 15/3/6
f 69/8/7 67/3/7 65/3/7
f 67/3/7 69/8/7 70/8/7
f 66/3/8 72/8/8 71/8/8
f 72/8/8 66/3/8 68/3/8
f 75/9/6 74/9/6 73/9/6
f 74/9/6 75/9/6 76/9/6
f 77/10/9 73/9/9 74/9/9
f 73/9/9 77/10/9 78/10/9
f 79/10/10 74/9/10 76/9/10
f 74/9/10 79/10/10 77/10/10
f 75/9/11 79/10/11 76/9/11
f 79/10/11 75/9/11 80/10/11
f 78/10/12 75/9/12 73/9/12
f 75/9/12 78/10/12 80/10/12
f 65/3/13 71/8/13 69/8/13
f 71/8/13 65/3/13 66/3/13
f 68/3/14 70/8/14 72/8/14
f 70/8/14 68/3/14 67/3/14
f 16/4/5 68/3/5 15/3/5
f 68/3/5 16/4/5 67/3/5
f 67/3/5 16/4/5 50/3/5
f 50/3/5 16/4/5 52/4/5
f 22/11/3 44/11/3 47/11/3
f 44/11/3 22/11/3 24/11/3
f 21/13/15 52/12/15 16/12/15
f 52/12/15 21/13/15 53/13/15
f 56/13/16 27/12/16 55/12/16
f 27/12/16 56/13/16 28/13/16
f 69/15/4 80/14/4 78/14/4
f 80/14/4 69/15/4 71/15/4
f 69/15/1 77/14/1 70/15/1
f 77/14/1 69/15/1 78/14/1
f 80/14/2 72/15/2 79/14/2
f 72/15/2 80/14/2 71/15/2
f 72/15/5 77/14/5 79/14/5
f 77/14/5 72/15/5 70/15/5

g bridge-straight-pillar




usemtl colormap

f 3/1/1 2/2/1 1/1/1
f 2/2/1 3/1/1 4/2/1
f 7/2/2 6/1/2 5/2/2
f 6/1/2 7/2/2 8/1/2
f 11/1/3 10/1/3 9/1/3
f 10/1/3 11/1/3 12/1/3
f 13/2/3 7/2/3 5/2/3
f 7/2/3 13/2/3 14/2/3
f 10/1/1 13/2/1 9/1/1
f 13/2/1 10/1/1 14/2/1
f 6/1/3 3/1/3 1/1/3
f 3/1/3 6/1/3 8/1/3
f 17/3/2 16/4/2 15/3/2
f 16/4/2 17/3/2 18/5/2
f 19/1/2 16/4/2 18/5/2
f 20/1/2 16/4/2 19/1/2
f 16/4/2 20/1/2 21/6/2
f 18/5/2 17/3/2 22/7/2
f 23/5/2 18/5/2 22/7/2
f 22/7/2 17/3/2 24/7/2
f 24/7/2 17/3/2 25/5/2
f 25/5/2 17/3/2 26/5/2
f 26/5/2 17/3/2 11/1/2
f 11/1/2 17/3/2 27/4/2
f 11/1/2 27/4/2 12/1/2
f 12/1/2 27/4/2 28/6/2
f 31/2/2 30/1/2 29/2/2
f 30/1/2 31/2/2 32/1/2
f 30/1/3 34/1/3 33/1/3
f 34/1/3 30/1/3 32/1/3
f 20/1/3 36/1/3 35/1/3
f 36/1/3 20/1/3 19/1/3
f 36/1/1 37/2/1 35/1/1
f 37/2/1 36/1/1 38/2/1
f 41/2/2 40/1/2 39/2/2
f 40/1/2 41/2/2 42/1/2
f 45/5/1 44/7/1 43/5/1
f 46/3/1 44/7/1 45/5/1
f 46/3/1 47/7/1 44/7/1
f 46/3/1 48/5/1 47/7/1
f 47/7/1 48/5/1 49/5/1
f 50/3/1 48/5/1 46/3/1
f 50/3/1 51/1/1 48/5/1
f 52/4/1 51/1/1 50/3/1
f 53/6/1 51/1/1 52/4/1
f 51/1/1 53/6/1 54/1/1
f 45/5/1 55/4/1 46/3/1
f 45/5/1 34/1/1 55/4/1
f 55/4/1 34/1/1 56/6/1
f 34/1/1 45/5/1 33/1/1
f 57/2/3 41/2/3 39/2/3
f 41/2/3 57/2/3 58/2/3
f 40/1/3 51/1/3 54/1/3
f 51/1/3 40/1/3 42/1/3
f 60/1/1 57/2/1 59/1/1
f 57/2/1 60/1/1 58/2/1
f 63/2/2 62/1/2 61/2/2
f 62/1/2 63/2/2 64/1/2
f 62/1/3 60/1/3 59/1/3
f 60/1/3 62/1/3 64/1/3
f 25/5/3 45/5/3 43/5/3
f 45/5/3 25/5/3 26/5/3
f 18/5/3 49/5/3 48/5/3
f 49/5/3 18/5/3 23/5/3
f 63/2/4 60/1/4 64/1/4
f 60/1/4 63/2/4 58/2/4
f 38/2/4 58/2/4 63/2/4
f 38/2/4 41/2/4 58/2/4
f 38/2/4 18/5/4 41/2/4
f 18/5/4 38/2/4 19/1/4
f 19/1/4 38/2/4 36/1/4
f 48/5/4 41/2/4 18/5/4
f 41/2/4 48/5/4 51/1/4
f 41/2/4 51/1/4 42/1/4
f 37/2/5 20/1/5 35/1/5
f 37/2/5 21/6/5 20/1/5
f 21/6/5 37/2/5 53/6/5
f 39/2/5 53/6/5 37/2/5
f 53/6/5 39/2/5 54/1/5
f 54/1/5 39/2/5 40/1/5
f 39/2/5 37/2/5 61/2/5
f 39/2/5 61/2/5 57/2/5
f 62/1/5 57/2/5 61/2/5
f 57/2/5 62/1/5 59/1/5
f 13/2/5 11/1/5 9/1/5
f 13/2/5 26/5/5 11/1/5
f 26/5/5 13/2/5 45/5/5
f 29/2/5 45/5/5 13/2/5
f 45/5/5 29/2/5 33/1/5
f 33/1/5 29/2/5 30/1/5
f 29/2/5 13/2/5 5/2/5
f 29/2/5 5/2/5 2/2/5
f 6/1/5 2/2/5 5/2/5
f 2/2/5 6/1/5 1/1/5
f 31/2/4 34/1/4 32/1/4
f 31/2/4 56/6/4 34/1/4
f 56/6/4 31/2/4 28/6/4
f 14/2/4 28/6/4 31/2/4
f 28/6/4 14/2/4 12/1/4
f 12/1/4 14/2/4 10/1/4
f 14/2/4 31/2/4 4/2/4
f 14/2/4 4/2/4 7/2/4
f 3/1/4 7/2/4 4/2/4
f 7/2/4 3/1/4 8/1/4
f 37/2/3 63/2/3 61/2/3
f 63/2/3 37/2/3 38/2/3
f 2/2/3 31/2/3 29/2/3
f 31/2/3 2/2/3 4/2/3
f 25/5/5 44/7/5 24/7/5
f 44/7/5 25/5/5 43/5/5
f 49/5/4 22/7/4 47/7/4
f 22/7/4 49/5/4 23/5/4
f 55/4/4 65/3/4 46/3/4
f 65/3/4 55/4/4 66/3/4
f 66/3/4 55/4/4 17/3/4
f 17/3/4 55/4/4 27/4/4
f 65/3/6 50/3/6 46/3/6
f 50/3/6 65/3/6 67/3/6
f 17/3/6 68/3/6 66/3/6
f 68/3/6 17/3/6 15/3/6
f 69/8/7 67/3/7 65/3/7
f 67/3/7 69/8/7 70/8/7
f 66/3/8 72/8/8 71/8/8
f 72/8/8 66/3/8 68/3/8
f 75/9/6 74/9/6 73/9/6
f 74/9/6 75/9/6 76/9/6
f 77/10/9 73/9/9 74/9/9
f 73/9/9 77/10/9 78/10/9
f 79/10/10 74/9/10 76/9/10
f 74/9/10 79/10/10 77/10/10
f 75/9/11 79/10/11 76/9/11
f 79/10/11 75/9/11 80/10/11
f 78/10/12 75/9/12 73/9/12
f 75/9/12 78/10/12 80/10/12
f 65/3/13 71/8/13 69/8/13
f 71/8/13 65/3/13 66/3/13
f 68/3/14 70/8/14 72/8/14
f 70/8/14 68/3/14 67/3/14
f 16/4/5 68/3/5 15/3/5
f 68/3/5 16/4/5 67/3/5
f 67/3/5 16/4/5 50/3/5
f 50/3/5 16/4/5 52/4/5
f 22/11/3 44/11/3 47/11/3
f 44/11/3 22/11/3 24/11/3
f 21/13/15 52/12/15 16/12/15
f 52/12/15 21/13/15 53/13/15
f 56/13/16 27/12/16 55/12/16
f 27/12/16 56/13/16 28/13/16
f 69/15/4 80/14/4 78/14/4
f 80/14/4 69/15/4 71/15/4
f 69/15/1 77/14/1 70/15/1
f 77/14/1 69/15/1 78/14/1
f 80/14/2 72/15/2 79/14/2
f 72/15/2 80/14/2 71/15/2
f 72/15/5 77/14/5 79/14/5
f 77/14/5 72/15/5 70/15/5

