<svg width="48" height="48" viewBox="0 0 48 48" fill="none" xmlns="http://www.w3.org/2000/svg">
<mask id="path-1-inside-1_42_759" fill="white">
<path d="M31.7432 7.74316L39.0752 8.32617L39.6562 15.6562L48 24L39.6045 32.3945L39.0752 39.0752L32.3945 39.6045L24 48L15.6436 39.6436L8.47559 39.0752L7.90625 31.9062L0 24L7.69141 16.3076L8.32617 8.32617L16.3076 7.69141L24 0L31.7432 7.74316ZM16.835 39.4209L24 46.5859L30.9404 39.6455L27.1475 35.8525L24 39L20.6279 35.6279L16.835 39.4209ZM21.335 34.9209L24 37.5859L26.4404 35.1455L23.7754 32.4805L21.335 34.9209ZM35.5527 20.5527L39 24L35.8525 27.1475L39.6455 30.9404L46.5859 24L39.3457 16.7598L35.5527 20.5527ZM1.41406 24L8.12988 30.7158L11.9229 26.9229L9 24L12.1475 20.8525L8.35449 17.0596L1.41406 24ZM23.1748 23.1748L16.6299 23.6943L23.3252 24.2256L23.7754 29.9014L24.2256 24.2256L30.8447 23.7002L24.2256 23.1748L23.7002 16.5557L23.1748 23.1748ZM32.4053 23.7002L35.1455 26.4404L37.5859 24L34.8457 21.2598L32.4053 23.7002ZM10.4141 24L12.6299 26.2158L15.0703 23.7754L12.8545 21.5596L10.4141 24ZM21.5596 12.8545L23.7002 14.9951L26.1406 12.5547L24 10.4141L21.5596 12.8545ZM17.0596 8.35449L20.8525 12.1475L24 9L26.8477 11.8477L30.6406 8.05469L24 1.41406L17.0596 8.35449Z"/>
</mask>
<path d="M31.7432 7.74316L31.0361 8.45027L31.2966 8.71081L31.6639 8.74002L31.7432 7.74316ZM39.0752 8.32617L40.0721 8.24715L40.0047 7.39692L39.1545 7.32932L39.0752 8.32617ZM39.6562 15.6562L38.6594 15.7353L38.6885 16.1027L38.9491 16.3634L39.6562 15.6562ZM48 24L48.7071 24.7071L49.4143 24L48.7071 23.2929L48 24ZM39.6045 32.3945L38.8974 31.6874L38.6367 31.948L38.6076 32.3156L39.6045 32.3945ZM39.0752 39.0752L39.1542 40.0721L40.0047 40.0047L40.0721 39.1542L39.0752 39.0752ZM32.3945 39.6045L32.3156 38.6076L31.948 38.6367L31.6874 38.8974L32.3945 39.6045ZM24 48L23.2929 48.7071L24 49.4143L24.7071 48.7071L24 48ZM15.6436 39.6436L16.3507 38.9364L16.09 38.6758L15.7226 38.6467L15.6436 39.6436ZM8.47559 39.0752L7.47872 39.1544L7.54625 40.0046L8.39654 40.0721L8.47559 39.0752ZM7.90625 31.9062L8.90311 31.8271L8.87394 31.4597L8.61336 31.1991L7.90625 31.9062ZM0 24L-0.707152 23.2929L-1.41417 24L-0.707107 24.7071L0 24ZM7.69141 16.3076L8.39856 17.0147L8.65905 16.7542L8.68826 16.3869L7.69141 16.3076ZM8.32617 8.32617L8.24689 7.32932L7.39692 7.39692L7.32932 8.24689L8.32617 8.32617ZM16.3076 7.69141L16.3869 8.68826L16.7542 8.65905L17.0147 8.39856L16.3076 7.69141ZM24 0L24.7071 -0.707107L24 -1.41417L23.2929 -0.707152L24 0ZM16.835 39.4209L16.1279 38.7138L15.4207 39.4209L16.1279 40.128L16.835 39.4209ZM24 46.5859L23.2929 47.293L24 48.0002L24.7071 47.293L24 46.5859ZM30.9404 39.6455L31.6475 40.3526L32.3546 39.6455L31.6475 38.9384L30.9404 39.6455ZM27.1475 35.8525L27.8546 35.1454L27.1475 34.4383L26.4404 35.1454L27.1475 35.8525ZM24 39L23.2929 39.7071L24 40.4142L24.7071 39.7071L24 39ZM20.6279 35.6279L21.335 34.9208L20.6279 34.2137L19.9208 34.9208L20.6279 35.6279ZM21.335 34.9209L20.6279 34.2138L19.9207 34.9209L20.6279 35.628L21.335 34.9209ZM24 37.5859L23.2929 38.293L24 39.0002L24.7071 38.293L24 37.5859ZM26.4404 35.1455L27.1475 35.8526L27.8546 35.1455L27.1475 34.4384L26.4404 35.1455ZM23.7754 32.4805L24.4825 31.7734L23.7754 31.0663L23.0683 31.7734L23.7754 32.4805ZM35.5527 20.5527L34.8456 19.8456L34.1385 20.5527L34.8456 21.2598L35.5527 20.5527ZM39 24L39.7071 24.7071L40.4142 24L39.7071 23.2929L39 24ZM35.8525 27.1475L35.1454 26.4404L34.4383 27.1475L35.1454 27.8546L35.8525 27.1475ZM39.6455 30.9404L38.9384 31.6475L39.6455 32.3546L40.3526 31.6475L39.6455 30.9404ZM46.5859 24L47.293 24.7071L48.0002 24L47.293 23.2929L46.5859 24ZM39.3457 16.7598L40.0528 16.0527L39.3457 15.3456L38.6386 16.0527L39.3457 16.7598ZM1.41406 24L0.706956 23.2929L-0.000151062 24L0.706956 24.7071L1.41406 24ZM8.12988 30.7158L7.42278 31.4229L8.12988 32.13L8.83699 31.4229L8.12988 30.7158ZM11.9229 26.9229L12.63 27.63L13.3371 26.9229L12.63 26.2157L11.9229 26.9229ZM9 24L8.29289 23.2929L7.58579 24L8.29289 24.7071L9 24ZM12.1475 20.8525L12.8546 21.5596L13.5617 20.8525L12.8546 20.1454L12.1475 20.8525ZM8.35449 17.0596L9.0616 16.3525L8.35449 15.6454L7.64739 16.3525L8.35449 17.0596ZM23.1748 23.1748L23.2539 24.1717L24.1042 24.1042L24.1717 23.2539L23.1748 23.1748ZM16.6299 23.6943L16.5508 22.6975L16.5508 24.6912L16.6299 23.6943ZM23.3252 24.2256L24.3221 24.1465L24.2546 23.2962L23.4043 23.2287L23.3252 24.2256ZM23.7754 29.9014L22.7785 29.9804H24.7723L23.7754 29.9014ZM24.2256 24.2256L24.1465 23.2287L23.2962 23.2962L23.2287 24.1465L24.2256 24.2256ZM30.8447 23.7002L30.9239 24.6971V22.7033L30.8447 23.7002ZM24.2256 23.1748L23.2287 23.2539L23.2962 24.1042L24.1465 24.1717L24.2256 23.1748ZM23.7002 16.5557L24.6971 16.4765H22.7033L23.7002 16.5557ZM32.4053 23.7002L31.6982 22.9931L30.9911 23.7002L31.6982 24.4073L32.4053 23.7002ZM35.1455 26.4404L34.4384 27.1475L35.1455 27.8546L35.8526 27.1475L35.1455 26.4404ZM37.5859 24L38.293 24.7071L39.0002 24L38.293 23.2929L37.5859 24ZM34.8457 21.2598L35.5528 20.5527L34.8457 19.8456L34.1386 20.5527L34.8457 21.2598ZM10.4141 24L9.70696 23.2929L8.99985 24L9.70696 24.7071L10.4141 24ZM12.6299 26.2158L11.9228 26.9229L12.6299 27.63L13.337 26.9229L12.6299 26.2158ZM15.0703 23.7754L15.7774 24.4825L16.4845 23.7754L15.7774 23.0683L15.0703 23.7754ZM12.8545 21.5596L13.5616 20.8525L12.8545 20.1454L12.1474 20.8525L12.8545 21.5596ZM21.5596 12.8545L20.8525 12.1474L20.1454 12.8545L20.8525 13.5616L21.5596 12.8545ZM23.7002 14.9951L22.9931 15.7022L23.7002 16.4093L24.4073 15.7022L23.7002 14.9951ZM26.1406 12.5547L26.8477 13.2618L27.5548 12.5547L26.8477 11.8476L26.1406 12.5547ZM24 10.4141L24.7071 9.70696L24 8.99985L23.2929 9.70696L24 10.4141ZM17.0596 8.35449L16.3525 7.64739L15.6454 8.35449L16.3525 9.0616L17.0596 8.35449ZM20.8525 12.1475L20.1454 12.8546L20.8525 13.5617L21.5596 12.8546L20.8525 12.1475ZM24 9L24.7071 8.29289L24 7.58579L23.2929 8.29289L24 9ZM26.8477 11.8477L26.1405 12.5548L26.8477 13.2619L27.5548 12.5548L26.8477 11.8477ZM30.6406 8.05469L31.3477 8.76179L32.0548 8.05469L31.3477 7.34758L30.6406 8.05469ZM24 1.41406L24.7071 0.706956L24 -0.000151062L23.2929 0.706956L24 1.41406ZM31.7432 7.74316L31.6639 8.74002L38.9959 9.32303L39.0752 8.32617L39.1545 7.32932L31.8224 6.74631L31.7432 7.74316ZM39.0752 8.32617L38.0783 8.40519L38.6594 15.7353L39.6562 15.6562L40.6531 15.5772L40.0721 8.24715L39.0752 8.32617ZM39.6562 15.6562L38.9491 16.3634L47.2929 24.7071L48 24L48.7071 23.2929L40.3634 14.9491L39.6562 15.6562ZM48 24L47.2929 23.2929L38.8974 31.6874L39.6045 32.3945L40.3116 33.1017L48.7071 24.7071L48 24ZM39.6045 32.3945L38.6076 32.3156L38.0783 38.9962L39.0752 39.0752L40.0721 39.1542L40.6014 32.4735L39.6045 32.3945ZM39.0752 39.0752L38.9962 38.0783L32.3156 38.6076L32.3945 39.6045L32.4735 40.6014L39.1542 40.0721L39.0752 39.0752ZM32.3945 39.6045L31.6874 38.8974L23.2929 47.2929L24 48L24.7071 48.7071L33.1017 40.3116L32.3945 39.6045ZM24 48L24.7071 47.2929L16.3507 38.9364L15.6436 39.6436L14.9364 40.3507L23.2929 48.7071L24 48ZM15.6436 39.6436L15.7226 38.6467L8.55463 38.0783L8.47559 39.0752L8.39654 40.0721L15.5645 40.6404L15.6436 39.6436ZM8.47559 39.0752L9.47245 38.996L8.90311 31.8271L7.90625 31.9062L6.90939 31.9854L7.47872 39.1544L8.47559 39.0752ZM7.90625 31.9062L8.61336 31.1991L0.707107 23.2929L0 24L-0.707107 24.7071L7.19914 32.6134L7.90625 31.9062ZM0 24L0.707152 24.7071L8.39856 17.0147L7.69141 16.3076L6.98425 15.6006L-0.707152 23.2929L0 24ZM7.69141 16.3076L8.68826 16.3869L9.32302 8.40545L8.32617 8.32617L7.32932 8.24689L6.69455 16.2283L7.69141 16.3076ZM8.32617 8.32617L8.40545 9.32302L16.3869 8.68826L16.3076 7.69141L16.2283 6.69455L8.24689 7.32932L8.32617 8.32617ZM16.3076 7.69141L17.0147 8.39856L24.7071 0.707152L24 0L23.2929 -0.707152L15.6006 6.98425L16.3076 7.69141ZM24 0L23.2929 0.707107L31.0361 8.45027L31.7432 7.74316L32.4503 7.03606L24.7071 -0.707107L24 0ZM16.835 39.4209L16.1279 40.128L23.2929 47.293L24 46.5859L24.7071 45.8788L17.5421 38.7138L16.835 39.4209ZM24 46.5859L24.7071 47.293L31.6475 40.3526L30.9404 39.6455L30.2333 38.9384L23.2929 45.8788L24 46.5859ZM30.9404 39.6455L31.6475 38.9384L27.8546 35.1454L27.1475 35.8525L26.4404 36.5596L30.2333 40.3526L30.9404 39.6455ZM27.1475 35.8525L26.4404 35.1454L23.2929 38.2929L24 39L24.7071 39.7071L27.8546 36.5596L27.1475 35.8525ZM24 39L24.7071 38.2929L21.335 34.9208L20.6279 35.6279L19.9208 36.335L23.2929 39.7071L24 39ZM20.6279 35.6279L19.9208 34.9208L16.1279 38.7138L16.835 39.4209L17.5421 40.128L21.335 36.335L20.6279 35.6279ZM21.335 34.9209L20.6279 35.628L23.2929 38.293L24 37.5859L24.7071 36.8788L22.0421 34.2138L21.335 34.9209ZM24 37.5859L24.7071 38.293L27.1475 35.8526L26.4404 35.1455L25.7333 34.4384L23.2929 36.8788L24 37.5859ZM26.4404 35.1455L27.1475 34.4384L24.4825 31.7734L23.7754 32.4805L23.0683 33.1876L25.7333 35.8526L26.4404 35.1455ZM23.7754 32.4805L23.0683 31.7734L20.6279 34.2138L21.335 34.9209L22.0421 35.628L24.4825 33.1876L23.7754 32.4805ZM35.5527 20.5527L34.8456 21.2598L38.2929 24.7071L39 24L39.7071 23.2929L36.2598 19.8456L35.5527 20.5527ZM39 24L38.2929 23.2929L35.1454 26.4404L35.8525 27.1475L36.5596 27.8546L39.7071 24.7071L39 24ZM35.8525 27.1475L35.1454 27.8546L38.9384 31.6475L39.6455 30.9404L40.3526 30.2333L36.5596 26.4404L35.8525 27.1475ZM39.6455 30.9404L40.3526 31.6475L47.293 24.7071L46.5859 24L45.8788 23.2929L38.9384 30.2333L39.6455 30.9404ZM46.5859 24L47.293 23.2929L40.0528 16.0527L39.3457 16.7598L38.6386 17.4669L45.8788 24.7071L46.5859 24ZM39.3457 16.7598L38.6386 16.0527L34.8456 19.8456L35.5527 20.5527L36.2598 21.2598L40.0528 17.4669L39.3457 16.7598ZM1.41406 24L0.706956 24.7071L7.42278 31.4229L8.12988 30.7158L8.83699 30.0087L2.12117 23.2929L1.41406 24ZM8.12988 30.7158L8.83699 31.4229L12.63 27.63L11.9229 26.9229L11.2157 26.2157L7.42278 30.0087L8.12988 30.7158ZM11.9229 26.9229L12.63 26.2157L9.70711 23.2929L9 24L8.29289 24.7071L11.2157 27.63L11.9229 26.9229ZM9 24L9.70711 24.7071L12.8546 21.5596L12.1475 20.8525L11.4404 20.1454L8.29289 23.2929L9 24ZM12.1475 20.8525L12.8546 20.1454L9.0616 16.3525L8.35449 17.0596L7.64739 17.7667L11.4404 21.5596L12.1475 20.8525ZM8.35449 17.0596L7.64739 16.3525L0.706956 23.2929L1.41406 24L2.12117 24.7071L9.0616 17.7667L8.35449 17.0596ZM23.1748 23.1748L23.0957 22.1779L16.5508 22.6975L16.6299 23.6943L16.709 24.6912L23.2539 24.1717L23.1748 23.1748ZM16.6299 23.6943L16.5508 24.6912L23.2461 25.2225L23.3252 24.2256L23.4043 23.2287L16.709 22.6975L16.6299 23.6943ZM23.3252 24.2256L22.3283 24.3047L22.7785 29.9804L23.7754 29.9014L24.7723 29.8223L24.3221 24.1465L23.3252 24.2256ZM23.7754 29.9014L24.7723 29.9804L25.2225 24.3047L24.2256 24.2256L23.2287 24.1465L22.7785 29.8223L23.7754 29.9014ZM24.2256 24.2256L24.3047 25.2225L30.9239 24.6971L30.8447 23.7002L30.7656 22.7033L24.1465 23.2287L24.2256 24.2256ZM30.8447 23.7002L30.9239 22.7033L24.3047 22.1779L24.2256 23.1748L24.1465 24.1717L30.7656 24.6971L30.8447 23.7002ZM24.2256 23.1748L25.2225 23.0957L24.6971 16.4765L23.7002 16.5557L22.7033 16.6348L23.2287 23.2539L24.2256 23.1748ZM23.7002 16.5557L22.7033 16.4765L22.1779 23.0957L23.1748 23.1748L24.1717 23.2539L24.6971 16.6348L23.7002 16.5557ZM32.4053 23.7002L31.6982 24.4073L34.4384 27.1475L35.1455 26.4404L35.8526 25.7333L33.1124 22.9931L32.4053 23.7002ZM35.1455 26.4404L35.8526 27.1475L38.293 24.7071L37.5859 24L36.8788 23.2929L34.4384 25.7333L35.1455 26.4404ZM37.5859 24L38.293 23.2929L35.5528 20.5527L34.8457 21.2598L34.1386 21.9669L36.8788 24.7071L37.5859 24ZM34.8457 21.2598L34.1386 20.5527L31.6982 22.9931L32.4053 23.7002L33.1124 24.4073L35.5528 21.9669L34.8457 21.2598ZM10.4141 24L9.70696 24.7071L11.9228 26.9229L12.6299 26.2158L13.337 25.5087L11.1212 23.2929L10.4141 24ZM12.6299 26.2158L13.337 26.9229L15.7774 24.4825L15.0703 23.7754L14.3632 23.0683L11.9228 25.5087L12.6299 26.2158ZM15.0703 23.7754L15.7774 23.0683L13.5616 20.8525L12.8545 21.5596L12.1474 22.2667L14.3632 24.4825L15.0703 23.7754ZM12.8545 21.5596L12.1474 20.8525L9.70696 23.2929L10.4141 24L11.1212 24.7071L13.5616 22.2667L12.8545 21.5596ZM21.5596 12.8545L20.8525 13.5616L22.9931 15.7022L23.7002 14.9951L24.4073 14.288L22.2667 12.1474L21.5596 12.8545ZM23.7002 14.9951L24.4073 15.7022L26.8477 13.2618L26.1406 12.5547L25.4335 11.8476L22.9931 14.288L23.7002 14.9951ZM26.1406 12.5547L26.8477 11.8476L24.7071 9.70696L24 10.4141L23.2929 11.1212L25.4335 13.2618L26.1406 12.5547ZM24 10.4141L23.2929 9.70696L20.8525 12.1474L21.5596 12.8545L22.2667 13.5616L24.7071 11.1212L24 10.4141ZM17.0596 8.35449L16.3525 9.0616L20.1454 12.8546L20.8525 12.1475L21.5596 11.4404L17.7667 7.64739L17.0596 8.35449ZM20.8525 12.1475L21.5596 12.8546L24.7071 9.70711L24 9L23.2929 8.29289L20.1454 11.4404L20.8525 12.1475ZM24 9L23.2929 9.70711L26.1405 12.5548L26.8477 11.8477L27.5548 11.1405L24.7071 8.29289L24 9ZM26.8477 11.8477L27.5548 12.5548L31.3477 8.76179L30.6406 8.05469L29.9335 7.34758L26.1405 11.1405L26.8477 11.8477ZM30.6406 8.05469L31.3477 7.34758L24.7071 0.706956L24 1.41406L23.2929 2.12117L29.9335 8.76179L30.6406 8.05469ZM24 1.41406L23.2929 0.706956L16.3525 7.64739L17.0596 8.35449L17.7667 9.0616L24.7071 2.12117L24 1.41406Z" fill="black" mask="url(#path-1-inside-1_42_759)"/>
</svg>
